<?xml version="1.0" encoding="utf-8"?>
<!-- Generator: Adobe Illustrator 25.2.1, SVG Export Plug-In . SVG Version: 6.00 Build 0)  -->
<svg version="1.1" id="Ebene_1" xmlns="http://www.w3.org/2000/svg" xmlns:xlink="http://www.w3.org/1999/xlink" x="0px" y="0px"
	 viewBox="0 0 239.7 248.9" style="enable-background:new 0 0 239.7 248.9;" xml:space="preserve">
<style type="text/css">
	.st0{fill:#FFFFFF;}
</style>
<g>
	<path class="st0" d="M194.1,196.8L194.1,196.8C194.1,196.8,194.2,196.8,194.1,196.8L194.1,196.8z"/>
</g>
<g>
	<path class="st0" d="M133.5,52.1c0-0.1,0-0.2,0-0.3V42c0-2.2-1.8-3.9-3.9-3.9h-11.3V5c0-2.8-2.2-5-5-5s-5,2.2-5,5v33.1H97
		c-2.1,0-3.9,1.8-3.9,3.9v9.8c0,0.1,0,0.2,0,0.3C48.6,61.4,15,101,15,148.2c0,54.2,44.1,98.3,98.3,98.3s98.3-44.1,98.3-98.3
		C211.6,101,178,61.4,133.5,52.1z M34.8,103.7H63c-4.1,12.2-6.4,25.9-6.7,40.5H23.1C23.8,129.6,27.9,115.8,34.8,103.7z M39.9,200.8
		h26.2c1.8,4.1,3.8,8,6.1,11.7c5.9,9.6,13.4,17.7,22.2,24.1C72.1,231.8,52.8,218.7,39.9,200.8z M109.3,236.3
		C98,230.6,84.2,220,74.8,200.8h34.5V236.3z M109.3,192.8H71.4c-4.1-11-6.8-24.3-7.1-40.5h45V192.8z M109.3,95.7H74.8
		c1.3-2.9,2.8-5.7,4.4-8.3c7.7-12.7,18-22.1,30.1-27.6V95.7z M191.8,103.7c6.9,12,11,25.8,11.7,40.5h-33.1
		c-0.3-14.6-2.6-28.3-6.7-40.5H191.8z M117.3,59.9c12,5.5,22.4,14.9,30.1,27.6c1.6,2.7,3.1,5.4,4.5,8.3h-34.5V59.9z M117.3,103.7
		h37.8c4.4,12,6.8,25.7,7.2,40.5h-45V103.7z M117.3,152.2h45c-0.4,16.2-3.1,29.5-7.2,40.5h-37.9V152.2z M194.1,196.8L194.1,196.8
		L194.1,196.8C194.2,196.8,194.1,196.8,194.1,196.8z M191.8,192.8h-28.2c4.1-12.1,6.4-25.6,6.7-40.5h33.1
		C202.8,166.9,198.7,180.7,191.8,192.8z"/>
</g>
<g>
	<path class="st0" d="M194.2,196.8C194.2,196.8,194.1,196.8,194.2,196.8L194.2,196.8L194.2,196.8z"/>
</g>
<g>
	<path class="st0" d="M239.7,61.8l-8.9,1.9c-5.2,1.2-10,3.8-13.8,7.5c-3.8,3.8-6.4,8.6-7.6,13.8l-1.9,8.8l-1.9-8.8
		c-2.4-10.7-10.7-19-21.4-21.3l-8.8-1.9l8.8-1.9c10.7-2.3,19.1-10.7,21.4-21.3l1.9-8.8l1.9,8.8c2.3,10.7,10.7,19,21.3,21.4
		L239.7,61.8z"/>
</g>
<g>
	<path class="st0" d="M41.4,228.3l-5.7,1.2c-6.9,1.5-12.2,6.8-13.8,13.7l-1.2,5.6l-1.2-5.6c-0.7-3.4-2.4-6.4-4.9-8.9
		c-2.5-2.4-5.5-4.1-8.9-4.9L0,228.3l5.7-1.2c6.9-1.5,12.2-6.8,13.8-13.7l1.2-5.6l1.2,5.6c1.5,6.9,6.9,12.2,13.8,13.7L41.4,228.3z"/>
</g>
</svg>
